<svg width="256" height="256" viewBox="0 0 256 256" fill="none" xmlns="http://www.w3.org/2000/svg">
  <defs>
    <linearGradient id="bg" x1="32" y1="24" x2="224" y2="232" gradientUnits="userSpaceOnUse">
      <stop stop-color="#3B82F6"/>
      <stop offset="1" stop-color="#8B5CF6"/>
    </linearGradient>
    <linearGradient id="stroke" x1="72" y1="58" x2="184" y2="194" gradientUnits="userSpaceOnUse">
      <stop stop-color="#F8FAFC"/>
      <stop offset="1" stop-color="#DBEAFE"/>
    </linearGradient>
  </defs>
  <rect x="20" y="20" width="216" height="216" rx="56" fill="url(#bg)"/>
  <path d="M178 94C168.4 79.3333 151.333 70 132 70C98.8629 70 72 96.8629 72 130C72 163.137 98.8629 190 132 190C158.51 190 180 168.51 180 142V136H132V156H156.4C151.507 167.815 142.014 174 130 174C105.699 174 86 154.301 86 130C86 105.699 105.699 86 130 86C143.303 86 155.227 91.9037 163.291 101.228L178 94Z" fill="url(#stroke)"/>
</svg>
